<?xml version="1.0" encoding="utf-8"?>
<!-- Generator: Adobe Illustrator 16.0.3, SVG Export Plug-In . SVG Version: 6.00 Build 0)  -->
<!DOCTYPE svg PUBLIC "-//W3C//DTD SVG 1.1//EN" "http://www.w3.org/Graphics/SVG/1.1/DTD/svg11.dtd">
<svg version="1.1" id="Ebene_1" xmlns="http://www.w3.org/2000/svg" xmlns:xlink="http://www.w3.org/1999/xlink" x="0px" y="0px"
	 width="511px" height="511px" viewBox="0 0 511 511" enable-background="new 0 0 511 511" xml:space="preserve">
<path fill="#F2D319" d="M501.72,214.87L390.23,312.62l32.88,144.81c2.409,10.641-1.721,21.65-10.561,28.04
	c-8.81,6.391-20.569,6.88-29.85,1.3l-127.2-76.02l-127.2,76.06c-4.3,2.561-9.09,3.86-13.93,3.86c-5.6,0-11.16-1.75-15.9-5.18
	c-8.84-6.41-12.97-17.42-10.56-28.04l32.87-144.811L9.29,214.87c-8.19-7.16-11.32-18.49-7.96-28.85
	c3.37-10.35,12.52-17.68,23.36-18.68l147.51-13.39l58.32-136.48c4.3-10.03,14.1-16.51,24.98-16.51s20.67,6.48,24.97,16.48
	l58.32,136.51l147.49,13.39c10.87,0.98,20.02,8.33,23.38,18.68C513.03,196.36,509.92,207.71,501.72,214.87z"/>
</svg>
