<?xml version="1.0" encoding="utf-8"?>
<!-- Generator: Adobe Illustrator 16.0.3, SVG Export Plug-In . SVG Version: 6.00 Build 0)  -->
<!DOCTYPE svg PUBLIC "-//W3C//DTD SVG 1.1//EN" "http://www.w3.org/Graphics/SVG/1.1/DTD/svg11.dtd">
<svg version="1.1" id="Ebene_1" xmlns="http://www.w3.org/2000/svg" xmlns:xlink="http://www.w3.org/1999/xlink" x="0px" y="0px"
	 width="511px" height="511px" viewBox="0 0 511 511" enable-background="new 0 0 511 511" xml:space="preserve">
<path fill="#F2D319" d="M114.373,490.667c-5.599,0-11.158-1.746-15.903-5.178c-8.838-6.405-12.967-17.415-10.562-28.039
	l32.874-144.811L9.294,214.868c-8.195-7.154-11.326-18.484-7.961-28.851c3.364-10.347,12.519-17.673,23.357-18.675l147.512-13.392
	l58.321-136.482c4.3-10.027,14.094-16.503,24.976-16.503c10.881,0,20.675,6.476,24.976,16.48l58.32,136.506l147.488,13.392
	c10.862,0.979,20.017,8.328,23.381,18.675s0.254,21.697-7.941,28.851L390.234,312.62l32.874,144.807
	c2.41,10.647-1.723,21.657-10.558,28.043c-8.814,6.387-20.569,6.878-29.853,1.299l-127.199-76.014l-127.2,76.057
	C123.999,489.365,119.207,490.667,114.373,490.667z M255.499,378.01c4.834,0,9.622,1.298,13.926,3.852l120.046,71.799
	l-31.026-136.677c-2.214-9.728,1.088-19.884,8.604-26.465l105.27-92.322l-139.273-12.647c-10.028-0.916-18.652-7.22-22.57-16.46
	L255.499,40.291l-55.042,128.817c-3.875,9.178-12.499,15.482-22.503,16.398L38.66,198.154l105.266,92.322
	c7.54,6.601,10.838,16.737,8.604,26.488l-31.003,136.673l120.046-71.775C245.873,379.308,250.665,378.01,255.499,378.01z
	 M171.076,156.59c0,0,0,0.023-0.023,0.043L171.076,156.59z M339.879,156.527l0.023,0.043
	C339.902,156.547,339.902,156.547,339.879,156.527z"/>
</svg>
