<?xml version="1.0" encoding="utf-8"?>
<!-- Generator: Adobe Illustrator 16.0.3, SVG Export Plug-In . SVG Version: 6.00 Build 0)  -->
<!DOCTYPE svg PUBLIC "-//W3C//DTD SVG 1.1//EN" "http://www.w3.org/Graphics/SVG/1.1/DTD/svg11.dtd">
<svg version="1.1" id="Ebene_1" xmlns="http://www.w3.org/2000/svg" xmlns:xlink="http://www.w3.org/1999/xlink" x="0px" y="0px"
	 width="511px" height="511px" viewBox="0 0 511 511" enable-background="new 0 0 511 511" xml:space="preserve">
<path fill="#F2D319" d="M508.66,186.02c-3.36-10.35-12.51-17.7-23.38-18.68l-147.49-13.39L279.47,17.44
	C275.2,7.52,265.53,1.06,254.75,0.96h-0.25c-10.88,0-20.68,6.48-24.98,16.51L171.2,153.95L23.69,167.34
	c-10.84,1-19.99,8.33-23.36,18.68c-0.11,0.34-0.21,0.68-0.32,1.02c0,0.04-0.01,0.07-0.02,0.1c-2.79,10.05,0.4,20.83,8.3,27.73
	l111.49,97.77L86.91,457.45c-2.41,10.62,1.72,21.63,10.56,28.04c4.74,3.43,10.3,5.18,15.9,5.18c4.84,0,9.63-1.3,13.93-3.86
	l127.2-76.06l127.2,76.02c9.28,5.58,21.04,5.091,29.85-1.3c8.83-6.39,12.97-17.399,10.561-28.04l-32.88-144.81l111.489-97.75
	C508.92,207.71,512.03,196.37,508.66,186.02z M366.05,290.52c-7.52,6.58-10.819,16.74-8.6,26.461l31.02,136.68l-120.05-71.8
	c-4.229-2.511-8.93-3.801-13.67-3.841V40.88l54.73,128.21c3.909,9.24,12.539,15.54,22.569,16.46L471.32,198.2L366.05,290.52z"/>
<path fill="#F2D319" d="M254.75,0v0.96h-0.25c-10.88,0-20.68,6.48-24.98,16.51L171.2,153.95L23.69,167.34
	c-10.84,1-19.99,8.33-23.36,18.68c-0.11,0.34-0.21,0.68-0.32,1.02c0.17-0.66,0.36-1.32,0.57-1.98
	c3.37-10.35,12.52-17.68,23.36-18.68l147.51-13.39l58.32-136.48C234.07,6.48,243.87,0,254.75,0z"/>
</svg>
